<?xml version="1.0" encoding="UTF-8"?>
<svg version="1.1" viewBox="0 0 2048 416" width="1280" height="1280" xmlns="http://www.w3.org/2000/svg">
<path transform="translate(1157,32)" d="m0 0h28l23 1 20 3 16 5 16 8 9 7 9 10 6 12 4 18v17l-4 16-7 14-11 14-8 8-15 11-16 9-17 8-19 6-14 3h-7v2l5 2 10 8 8 10 10 17 8 19 6 16 11 26 10 20 9 14 10 13 9 10 11 8 12 6 8 2h20l16-3 20-6 6-2 5 10-1 4-17 10-20 8-20 5-16 2h-29l-21-3-15-4-16-7-12-7-10-8-12-11-11-13-12-18-9-16-12-25-16-41-14-36-3-5-5-1-2 11-21 89-4 13-6 9-8 6-8 3h-78v-8l11-10 6-10 5-14 19-78 13-53 18-76 2-10v-22l-4-10-4-6v-9zm-34 20 2 10-1 16-15 65-9 38v5h29l17-3 16-6 10-6 11-9 9-11 8-15 5-18 1-11v-11l-2-11-4-9-6-9-9-7-11-5-7-2-13-1z"/>
<path transform="translate(589,118)" d="m0 0h18l10 3 10 6 6 7 6 12 2 8 1 18 10-14 12-14 10-9 13-8 16-7 11-2h20l12 3 10 6 7 7 6 12 2 7 1 17-2 17-19 83-5 22v11l2 6 6 2h11l15-1v10l-9 6-21 10-20 6-11 2h-17l-12-3-12-6-8-9-4-10-1-5v-15l5-25 11-48 9-37 1-5v-7l-3-6-4-2-8 1-9 5-9 9-9 14-8 18-7 22-14 59-1 5v8l4 4h9l13-4 3 8-2 4-10 8-17 9-18 6-10 2h-15l-11-3-12-6-8-9-4-9-2-15 2-15 22-95 3-14-2-9-5-3-10 2-8 5-9 9-9 15-7 16-6 18-10 40-15 65-1 3h-80l4-18 18-76 18-78 1-6v-14l-4-9-7-8v-7l1-1h65l9 2 8 6 6 7 3 9v18l8-11 11-13 12-10 15-8 10-3zm-65 47 1 2z"/>
<path transform="translate(1938,11)" d="m0 0h65l10 3 8 6 6 8 2 7v15l-33 143-18 77-5 22v13l5 5 2 1h12l15-1v10l-13 8-18 8-16 5-15 3h-16l-11-3-8-4-6-5-6-11-2-11 1-18-9 15-8 10-11 11-14 9-14 5-10 2h-17l-17-4-16-8-10-9-7-8-8-16-5-18-1-7v-25l5-25 7-21 8-16 8-14 9-11 9-10 4-5 14-11 14-8 14-6 12-3 7-1h19l11 3 11 6 10 9 6 7 6 11 10-41 13-58 1-14-3-12-6-8-1-1zm-49 134-10 4-10 8-8 9-8 14-7 15-8 24-5 25-1 10v21l3 16 5 10 7 6 3 1h8l9-4 8-6 9-9 9-14 7-15 5-16 8-39 2-16-1-16-3-13-5-9-6-5-3-1z"/>
<path transform="translate(1608,118)" d="m0 0h20l13 3 11 6 11 11 7 14 2 9h2l1-9 5-16 4-6 5-5 8-5 3-1h52l-1 8-23 98-10 42-6 25v13l5 5 2 1h11l16-1v10l-9 6-17 8-21 7-15 3h-15l-14-4-9-6-6-8-3-8v-19l1-6-7 11-8 10-8 9-12 9-15 8-15 4h-16l-15-4-16-8-12-11-7-9-6-12-5-17-2-16v-11l2-17 5-21 6-16 8-16 10-16 11-13 6-7 11-9 11-8 16-8 15-5zm25 27-10 4-10 9-7 8-9 14-9 20-6 19-5 23-1 10v26l3 14 5 10 6 5 3 1h8l9-4 8-6 10-13 9-17 8-24 9-39 2-17v-12l-3-16-5-10-5-4-3-1z"/>
<path transform="translate(131,32)" d="m0 0h50l18 1v8l-7 7-9 13-5 10-5 19-21 90-16 68-10 42-6 16-3 6h9l29-4 21-5 33-11 29-14 15-9 6-4h7l-2 12-9 40-4 9-7 8-7 4-4 1h-215v-8l7-8 8-10 5-11 9-36 14-59 29-124 7-28 5-10 4-5 7-5 5-2z"/>
<path transform="translate(1372,118)" d="m0 0h25l17 3 15 5 15 8 11 9 10 10 9 14 6 13 4 17v23l-4 21-7 19-9 17-8 11-9 11-14 14-14 10-16 9-15 6-21 5-8 1h-21l-14-2-21-6-14-7-12-9-10-10-9-15-5-14-3-15v-25l4-20 5-15 8-16 7-12 11-14 17-17 16-11 17-9 15-5 14-3zm11 19-8 4-8 9-8 13-8 18-8 24-6 24-6 32-2 23v11l2 14 5 10 5 4 2 1h10l8-6 8-9 6-10 9-21 8-25 7-28 4-24 2-25v-9l-2-15-5-10-5-4-3-1z"/>
<path transform="translate(904,118)" d="m0 0h25l13 2 16 5 11 6 12 10 7 11 4 12v15l-4 15-7 11-10 10-13 8-16 7-23 6-26 4-24 2-4 1 3 23 5 14 6 11 8 8 8 5 6 2h19l10-3 13-7 13-11 5-4 9 8-2 5-8 11-11 11-14 10-16 8-18 6-14 3-7 1h-18l-15-3-14-5-13-7-11-9-10-11-8-14-5-13-3-16v-20l3-20 6-20 9-19 10-15 9-11 12-12 15-11 14-8 18-7 17-4zm6 19-9 4-7 6-8 11-8 16-5 13-6 24-2 15 10-2 14-5 11-6 10-9 7-9 6-13 3-14v-19l-3-8-5-4z"/>
<path transform="translate(301,122)" d="m0 0h65l9 2 9 6 5 6 4 10v13l-11 47-18 79-2 10 1 10 5 5 2 1h11l16-1v10l-14 8-15 7-18 6-15 3h-16l-13-3-11-6-7-7-5-11-1-5v-18l5-25 17-72 7-31 1-13-2-9-6-10-3-3z"/>
<path transform="translate(364,6)" d="m0 0h8l10 2 12 6 7 6 7 11 4 11v22l-5 13-6 8-8 7-8 4-10 3h-14l-13-4-10-7-7-8-6-13-1-4v-20l3-10 6-10 4-5 10-7 10-4z"/>
</svg>
